<?xml version="1.0" encoding="UTF-8"?>
<svg width="2500" height="423" version="1.1" viewBox="0 0 175.75 29.771" xmlns="http://www.w3.org/2000/svg">
 <path d="M0 0h175.748v29.771H0V0z" fill="#fff22d"/>
 <path d="m38.731 17.47v-1.637l0.748-0.022h0.478c1.596 0 2.234 0.617 2.367 1.659h3.78c-0.193-1.545-0.97-2.595-3.026-2.854 1.87-0.371 2.805-1.607 2.805-3.317 0-3.174-2.166-3.854-4.788-3.854h-6.112v10.027h3.748zm11.845 0 1.056-4.702 1.163 4.702h3.091l-2.201-7.326h-3.714l-2.246 7.326zm10.115 0v-3.27l1.365 3.271h2.817l-3.068-7.326h-3.743v7.326h2.629zm7.043 0v-7.326h-2.632v7.326zm4.397 0a73.658 73.658 0 0 1-9e-3 -1.208c0-3.902 0.298-4.56 1.433-4.56 0.817 0 1.184 0.619 1.184 2.271h3.042c0.114-2.667-1.367-4.131-4.3-4.131-4.368 0-4.495 2.775-4.495 6.418 0 0.414-1e-3 0.817 2e-3 1.205zm9.84 0c-0.01-0.369-0.013-0.771-0.013-1.208 0-3.183 0.18-4.56 1.567-4.56 1.388 0 1.567 1.376 1.567 4.56 0 0.437-3e-3 0.839-0.013 1.206l3.177 2e-3c9e-3 -0.396 9e-3 -0.802 9e-3 -1.208 0-3.286 0-6.418-4.74-6.418s-4.74 3.132-4.74 6.418c0 0.406 0 0.812 9e-3 1.21zm12.749 0v-5.466h1.26c1.692 0 1.692 1.979 1.692 4.231 0 0.451-8e-3 0.861-0.021 1.232l3.141 2e-3c0.018-0.5 6e-3 -0.958 6e-3 -1.324 0-3.808-0.697-6.041-4.422-6.041h-4.742v7.365h3.086zm10.416 0a47.783 47.783 0 0 1-0.013-1.181c0-3.169 0.181-4.54 1.567-4.54 1.388 0 1.566 1.371 1.566 4.54 0 0.426-2e-3 0.818-0.012 1.181h3.18c8e-3 -0.39 8e-3 -0.783 8e-3 -1.181 0-3.271 0-6.391-4.742-6.391-4.744 0-4.744 3.119-4.744 6.391 0 0.396 0 0.791 9e-3 1.179zm13.256 0v-1.613l0.944-0.023h0.771c1.291 0 1.812 0.61 1.926 1.641l3.729-2e-3c-0.193-1.544-0.974-2.594-3.027-2.854 1.869-0.371 2.805-1.608 2.805-3.318 0-3.173-2.166-3.854-4.789-3.854h-6.111v10.023zm11.621 0v-5.455h1.053c0.896 0 1.674 0.652 1.674 1.851 0 1.015-0.508 1.849-1.324 1.796l-0.885 0.013 0.781 1.798h2.729l-0.455-1.01c1.58-0.294 2.207-1.295 2.213-3.132 5e-3 -2.074-1.231-3.188-3.153-3.188h-5.81v7.329h3.177zm9.763 0 1.058-4.695 1.16 4.695h3.092l-2.198-7.328h-3.716l-2.271 7.328zm14.664 0c-1.162-2.167-4.938-2.209-4.938-4.163 0-0.844 0.515-1.299 1.384-1.299h2.823v-1.875h-3.97c-3.262 0-4.067 1.473-4.067 3.378 0 2.346 2.442 3.139 4.173 3.957zm4.588 0v-7.326h-3.1v7.326zm4.916 0v-7.326h-3.1v7.326zm-125.21-3.935v-3.804h1.345c1.222 0 2.084 0.804 2.084 1.896 0 1.443-1.102 1.896-1.892 1.896h-1.261zm79.661 0.023v-3.804h1.813c0.993 0 1.696 0.805 1.696 1.896 0 1.442-0.897 1.896-1.541 1.896h-1.026zm-110.2 9.39 2.326-1.55 2.326 1.55-4.652 3.102zm22.33-16.125-2.326 1.55-2.326-1.55 4.652-3.103zm0 11.783-11.165 7.444-11.165-7.444 13.259-8.838 2.326 1.551-10.7 7.133 6.513 4.342 3.023-2.016-2.326-1.551 5.583-3.723zm-22.33-7.441 11.166-7.442 11.165 7.442-13.259 8.838-2.326-1.551 10.7-7.133-6.513-4.341-3.024 2.016 2.326 1.55-5.583 3.723zm26.795 6.305v4.854h6.088c1.459 0 5.085-0.165 5.085-3.938 0-0.32-0.016-0.628-0.053-0.917l-3.78 1e-3c0.019 0.146 0.027 0.302 0.027 0.464 0 2.081-1.724 2.103-2.49 2.103h-1.13v-2.564h-3.747zm12.743 0-1.487 4.853h3.062l0.765-2.698h3.286l0.746 2.698h3.248l-1.458-4.853h-3.091l0.069 0.28h-2.352l0.063-0.28zm10.337 0v4.853h2.628v-4.853zm3.994 0 2.025 4.853h3.653v-4.853h-2.632v0.548l-0.229-0.548zm6.932 0c0.034 3.044 0.421 5.211 4.625 5.211 2.69 0 4.263-1.066 4.263-4.389h-3.061c-0.038 0.98-0.054 2.529-1.202 2.529-1.149 0-1.432-0.612-1.482-3.354zm9.806 0c0.065 2.786 0.583 5.211 4.731 5.211s4.667-2.425 4.731-5.209l-3.177-2e-3c-0.06 2.326-0.357 3.353-1.555 3.353-1.197 0-1.496-1.025-1.554-3.354zm12.84 0v4.853h4.629c3.905 0 4.463-2.785 4.528-4.851l-3.142-2e-3c-0.09 2.146-0.487 2.994-1.754 2.994h-1.178v-2.994zm10.321 0c0.062 2.781 0.571 5.211 4.735 5.211 4.162 0 4.67-2.43 4.734-5.213l-3.18 2e-3c-0.059 2.332-0.354 3.359-1.555 3.359-1.203 0-1.5-1.027-1.557-3.359zm12.683 0v4.854h6.09c1.459 0 5.084-0.165 5.084-3.938 0-0.321-0.017-0.628-0.051-0.917l-3.729-1e-3c0.017 0.154 0.025 0.315 0.025 0.485 0 2.081-1.406 2.104-2.029 2.104h-1.639v-2.589zm12.198 0v4.852h3.177v-4.852zm4.476 0 2.11 4.852h5.078l0.767-2.699h3.285l0.745 2.699 7.38 1e-3c2.038 0 4.104-0.271 4.104-3.426a2.94 2.94 0 0 0-0.338-1.423l-4.598-4e-3c0.944 0.446 1.676 0.901 1.676 1.622 0 0.826-0.443 1.385-1.349 1.385l-4.185-1e-3 -0.901-3.006h-3.092l0.071 0.287h-2.354l0.064-0.287h-2.875l-1.162 3.757-1.699-3.757zm24.619 0v4.853h3.1v-4.853zm4.916 0v4.853h6.717v-1.843h-3.617v-3.011z" fill="#2360a5"/>
</svg>
