<svg id="efi-logo-gray" xmlns="http://www.w3.org/2000/svg" width="142.2" height="32.5" viewBox="0 0 142.2 32.5">
  <g id="Grupo_25715" data-name="Grupo 25715">
    <rect id="Retângulo_3014" data-name="Retângulo 3014" width="142.2" height="32" transform="translate(0)" fill="none"/>
    <path id="Caminho_21382" data-name="Caminho 21382" d="M39.65,8.185l5.83-2.232V0L38.422,5.74a1.534,1.534,0,0,0-.716,1.24,1.333,1.333,0,0,0,1.943,1.2M37.706,28.841h3.75V10.063h-3.75Zm-17.012,0h3.75V21.613H33.82V18.07H24.445a4.276,4.276,0,0,1,4.466-4.712,6.068,6.068,0,0,1,3.58,1.2l2.386-2.8a9.208,9.208,0,0,0-5.864-2.055,7.935,7.935,0,0,0-8.318,8.362ZM3.818,17.468A5,5,0,0,1,9,13.358a4.538,4.538,0,0,1,4.875,4.11Zm13.91,1.594c0-4.323-3-9.354-8.728-9.354-5.046,0-9,3.933-9,9.6S3.989,29.2,9.376,29.2a9.505,9.505,0,0,0,7.807-4.11l-2.625-2.232a6.248,6.248,0,0,1-5.284,2.693,5.251,5.251,0,0,1-5.455-4.535H15.877c1.159,0,1.851-.567,1.851-1.949" transform="translate(0 0.575)" fill="#6e6f71"/>
    <g id="Grupo_25712" data-name="Grupo 25712" transform="translate(47.827 19.065)">
      <path id="Caminho_21415" data-name="Caminho 21415" d="M-121.509-1971.708l1.146-2.933-2.489-6.685h1.232l1.836,5.276h.024l1.837-5.276h1.183l-3.61,9.618Zm8.774-7.44a4.633,4.633,0,0,1,4.547-4.97,5.211,5.211,0,0,1,2.637.692v1.269a4.666,4.666,0,0,0-2.587-.794,3.525,3.525,0,0,0-3.426,3.8,3.5,3.5,0,0,0,3.364,3.8,3.588,3.588,0,0,0,1.8-.423v-3.778h1.1v4.52a5.437,5.437,0,0,1-2.907.819A4.634,4.634,0,0,1-112.734-1979.148Zm60.633,1.318a3.348,3.348,0,0,1,3.216-3.649c1.577,0,2.871,1.2,2.871,3.483a3.333,3.333,0,0,1-.037.525h-4.941a2.306,2.306,0,0,0,2.354,2.2,3.374,3.374,0,0,0,2.242-.909v1.165a3.785,3.785,0,0,1-2.329.768A3.276,3.276,0,0,1-52.1-1977.83Zm1.109-.524h3.881c-.025-1.435-.875-2.1-1.787-2.1A2.21,2.21,0,0,0-50.993-1978.355Zm-16.686.5c0-2.216,1.466-3.624,3.031-3.624a2.675,2.675,0,0,1,2.378,1.434l.135-1.281h.924v6.928h-.924l-.135-1.267a2.663,2.663,0,0,1-2.378,1.421C-66.212-1974.244-67.679-1975.665-67.679-1977.855Zm1.145,0a2.264,2.264,0,0,0,2.12,2.51,2.275,2.275,0,0,0,2.107-2.523,2.27,2.27,0,0,0-2.107-2.51A2.269,2.269,0,0,0-66.533-1977.855Zm-10.869-.013a3.421,3.421,0,0,1,3.364-3.611,3.321,3.321,0,0,1,1.848.486v1.2a2.742,2.742,0,0,0-1.787-.589,2.349,2.349,0,0,0-2.28,2.51,2.348,2.348,0,0,0,2.292,2.523,2.78,2.78,0,0,0,1.774-.563v1.19a3.589,3.589,0,0,1-1.848.474A3.417,3.417,0,0,1-77.4-1977.868Zm-14.739.038a3.348,3.348,0,0,1,3.217-3.649c1.577,0,2.871,1.2,2.871,3.483a3.234,3.234,0,0,1-.037.525h-4.941a2.307,2.307,0,0,0,2.354,2.2,3.375,3.375,0,0,0,2.242-.909v1.165a3.785,3.785,0,0,1-2.329.768A3.277,3.277,0,0,1-92.141-1977.83Zm1.109-.524h3.881c-.024-1.435-.874-2.1-1.786-2.1A2.21,2.21,0,0,0-91.033-1978.355Zm-12.8.524a3.348,3.348,0,0,1,3.216-3.649c1.578,0,2.871,1.2,2.871,3.483a3.242,3.242,0,0,1-.037.525h-4.941a2.306,2.306,0,0,0,2.354,2.2,3.372,3.372,0,0,0,2.242-.909v1.165a3.783,3.783,0,0,1-2.329.768A3.276,3.276,0,0,1-103.836-1977.83Zm1.109-.524h3.881c-.025-1.435-.875-2.1-1.787-2.1A2.21,2.21,0,0,0-102.728-1978.355Zm-26.212,2.689-.136,1.267H-130v-10.245h1.134v4.534a2.6,2.6,0,0,1,2.316-1.37c1.565,0,3.007,1.4,3.007,3.624,0,2.2-1.466,3.611-3.032,3.611A2.644,2.644,0,0,1-128.94-1975.665Zm.049-2.2a2.266,2.266,0,0,0,2.095,2.523,2.264,2.264,0,0,0,2.12-2.51,2.269,2.269,0,0,0-2.12-2.523A2.262,2.262,0,0,0-128.891-1977.868Zm84.713,1.05v-3.483h-1v-1.025h1.022v-1.626h1.085v1.626h1.91v1.025h-1.91v3.432a1.349,1.349,0,0,0,1.466,1.524,3.349,3.349,0,0,0,.591-.064v1.025a4.07,4.07,0,0,1-.788.076A2.25,2.25,0,0,1-44.178-1976.818Zm-10.636,2.421v-4.162c0-1.216-.53-1.793-1.528-1.793a1.645,1.645,0,0,0-1.664,1.729v4.226h-1.134v-6.928h.875l.123,1.05h.037a2.389,2.389,0,0,1,2.046-1.2,2.284,2.284,0,0,1,2.378,2.5v4.585Zm-25.288,0v-4.162c0-1.216-.53-1.793-1.529-1.793a1.645,1.645,0,0,0-1.663,1.729v4.226h-1.134v-6.928h.875l.124,1.05h.037a2.388,2.388,0,0,1,2.046-1.2,2.284,2.284,0,0,1,2.378,2.5v4.585Zm-16.02,0v-6.928h.9l.124,1.1h.012a2.144,2.144,0,0,1,1.91-1.178,2.284,2.284,0,0,1,.444.039v1.127a2.742,2.742,0,0,0-.468-.052,1.763,1.763,0,0,0-1.787,1.947v3.944Zm25.645,0v-6.928h1.133v6.928Zm-.135-9.232a.69.69,0,0,1,.7-.718.69.69,0,0,1,.7.718.69.69,0,0,1-.7.717A.69.69,0,0,1-70.611-1983.631Z" transform="translate(130 1984.643)" fill="#6e6f71" stroke="rgba(0,0,0,0)" stroke-width="1"/>
    </g>
  </g>
</svg>
