<?xml version="1.0" encoding="UTF-8" standalone="no"?>
<!-- Created with Inkscape (http://www.inkscape.org/) -->

<svg
   xmlns:dc="http://purl.org/dc/elements/1.1/"
   xmlns:cc="http://creativecommons.org/ns#"
   xmlns:rdf="http://www.w3.org/1999/02/22-rdf-syntax-ns#"
   xmlns:svg="http://www.w3.org/2000/svg"
   xmlns="http://www.w3.org/2000/svg"
   xmlns:sodipodi="http://sodipodi.sourceforge.net/DTD/sodipodi-0.dtd"
   xmlns:inkscape="http://www.inkscape.org/namespaces/inkscape"
   width="53.77565mm"
   height="25.832844mm"
   viewBox="0 0 190.54364 91.533698"
   id="svg651275"
   version="1.1"
   inkscape:version="0.91 r13725"
   sodipodi:docname="logo-cores.svg"
   inkscape:export-filename="/Users/keithyoder/Downloads/logo-cores.png"
   inkscape:export-xdpi="196.64888"
   inkscape:export-ydpi="196.64888">
  <defs
     id="defs651277" />
  <sodipodi:namedview
     id="base"
     pagecolor="#ffffff"
     bordercolor="#666666"
     borderopacity="1.0"
     inkscape:pageopacity="1"
     inkscape:pageshadow="2"
     inkscape:zoom="4.3507093"
     inkscape:cx="95.271821"
     inkscape:cy="45.766849"
     inkscape:document-units="px"
     inkscape:current-layer="layer1"
     showgrid="false"
     inkscape:window-width="1440"
     inkscape:window-height="799"
     inkscape:window-x="0"
     inkscape:window-y="1"
     inkscape:window-maximized="1"
     showguides="false"
     fit-margin-top="2"
     fit-margin-left="2"
     fit-margin-right="2"
     fit-margin-bottom="2" />
  <metadata
     id="metadata651280">
    <rdf:RDF>
      <cc:Work
         rdf:about="">
        <dc:format>image/svg+xml</dc:format>
        <dc:type
           rdf:resource="http://purl.org/dc/dcmitype/StillImage" />
        <dc:title></dc:title>
      </cc:Work>
    </rdf:RDF>
  </metadata>
  <g
     inkscape:label="Layer 1"
     inkscape:groupmode="layer"
     id="layer1"
     transform="translate(-145.36877,-508.4787)">
    <path
       id="path4241"
       style="font-style:normal;font-variant:normal;font-weight:normal;font-stretch:normal;font-size:medium;line-height:125%;font-family:Azonix;-inkscape-font-specification:'Azonix, Normal';text-align:start;letter-spacing:0px;word-spacing:0px;writing-mode:lr-tb;text-anchor:start;fill:#244a6e;fill-opacity:1;stroke:none;stroke-width:1px;stroke-linecap:butt;stroke-linejoin:miter;stroke-opacity:1"
       d="m 288.3545,561.25659 0,-27.96 -4.96,0 0,27.96 4.96,0 z m -9.06687,-20.28 0,-0.12 c 0,-4.2 -3.36,-7.6 -7.56,-7.6 l -11.36,0 c -4.16,0 -7.52,3.4 -7.52,7.6 l 0,0.12 c 0,1.6 0.48,3.08 1.32,4.32 0.28,0.4 0.64,0.8 1,1.16 1.32,1.32 3.16,2.12 5.2,2.12 l 10.08,0 c 2.12,0 3.88,1.72 3.88,3.84 0,2.12 -1.76,3.84 -3.88,3.84 l -8.76,0 c -2.16,0 -3.88,-1.72 -3.88,-3.84 l -4.96,0 c 0,4.88 3.92,8.84 8.84,8.84 l 8.76,0 c 4.88,0 8.84,-3.96 8.84,-8.84 0,-2.12 -0.72,-4.04 -2,-5.6 -0.08,-0.12 -0.2,-0.24 -0.32,-0.36 -1.6,-1.8 -3.92,-2.92 -6.52,-2.92 l -10.08,0 c -1.4,0 -2.56,-1.12 -2.56,-2.56 l 0,-0.12 c 0,-1.44 1.16,-2.56 2.56,-2.56 l 11.36,0 c 1.44,0 2.6,1.12 2.6,2.56 l 0,0.12 4.96,0 z m -30.54688,0 0,-0.12 c 0,-4.2 -3.36,-7.6 -7.56,-7.6 l -11.36,0 c -4.16,0 -7.52,3.4 -7.52,7.6 l 0,0.12 c 0,1.6 0.48,3.08 1.32,4.32 0.28,0.4 0.64,0.8 1,1.16 1.32,1.32 3.16,2.12 5.2,2.12 l 10.08,0 c 2.12,0 3.88,1.72 3.88,3.84 0,2.12 -1.76,3.84 -3.88,3.84 l -8.76,0 c -2.16,0 -3.88,-1.72 -3.88,-3.84 l -4.96,0 c 0,4.88 3.92,8.84 8.84,8.84 l 8.76,0 c 4.88,0 8.84,-3.96 8.84,-8.84 0,-2.12 -0.72,-4.04 -2,-5.6 -0.08,-0.12 -0.2,-0.24 -0.32,-0.36 -1.6,-1.8 -3.92,-2.92 -6.52,-2.92 l -10.08,0 c -1.4,0 -2.56,-1.12 -2.56,-2.56 l 0,-0.12 c 0,-1.44 1.16,-2.56 2.56,-2.56 l 11.36,0 c 1.44,0 2.6,1.12 2.6,2.56 l 0,0.12 4.96,0 z m -50.95125,-2.72 20.44,0 0,-5 -20.44,0 c -4.16,0 -7.52,3.4 -7.52,7.6 l 0,12.84 c 0,4.2 3.36,7.6 7.52,7.6 l 20.44,0 0,-5 -20.44,0 c -1.4,0 -2.56,-1.16 -2.56,-2.6 l 0,-5.28 18,0 0,-5 -18,0 0,-2.56 c 0,-1.44 1.16,-2.6 2.56,-2.6 z m 6.0273,-22.69127 -5.13615,10.27228 -16.69245,0 0,35.95299 -10.27229,0 0,-35.95299 -19.26053,0 0,-10.27228 51.36142,0 z" />
    <path
       style="fill:#244a6e;fill-opacity:1;stroke:none;stroke-width:0.89300001;stroke-miterlimit:10;stroke-dasharray:none;stroke-dashoffset:6.36999989;stroke-opacity:1"
       d="m 314.89389,547.76752 a 4,4.0000005 0 0 1 -4,4 4,4.0000005 0 0 1 -4,-4 4,4.0000005 0 0 1 4,-4 4,4.0000005 0 0 1 4,4 z"
       id="ellipse4192" />
    <path
       style="fill:#24c86e;fill-opacity:1;stroke:none;stroke-width:0.89300001;stroke-miterlimit:10;stroke-dasharray:none;stroke-dashoffset:6.36999989;stroke-opacity:1"
       d="m 306.6011,558.38232 a 4,4.0000005 0 0 1 -4,4 4,4.0000005 0 0 1 -4,-4 4,4.0000005 0 0 1 4,-4 4,4.0000005 0 0 1 4,4 z"
       id="ellipse4194" />
    <path
       id="path4196"
       d="m 321.85984,556.39202 a 4,4.0000005 0 0 1 -4,4 4,4.0000005 0 0 1 -4,-4 4,4.0000005 0 0 1 4,-4 4,4.0000005 0 0 1 4,4 z"
       style="fill:#f0f01e;fill-opacity:1;stroke:none;stroke-width:1;stroke-miterlimit:4;stroke-dasharray:none;stroke-dashoffset:6.36999989;stroke-opacity:1"
       inkscape:connector-curvature="0" />
    <path
       id="path4198"
       d="m 270.67168,585.4114 c 38.80037,17.67361 51.48965,-5.2989 53.42531,-18.13151 l 0,0.2746"
       style="fill:none;fill-opacity:1;stroke:#ff4a6e;stroke-width:2;stroke-miterlimit:4;stroke-dasharray:none;stroke-dashoffset:6.36999989;stroke-opacity:1"
       inkscape:connector-curvature="0" />
    <path
       id="path4200"
       d="m 270.86545,585.6479 c 35.73705,12.79144 44.98009,-14.87178 46.91575,-27.70439 l 0,0.2746"
       style="fill:none;fill-opacity:1;stroke:#f0f01e;stroke-width:2;stroke-miterlimit:4;stroke-dasharray:none;stroke-dashoffset:6.36999989;stroke-opacity:1"
       inkscape:connector-curvature="0" />
    <path
       id="path4202"
       d="m 270.27551,585.40345 c 20.41489,-1.85851 32.57053,-11.05856 33.22652,-30.48053 l 0,0.2746"
       style="fill:none;fill-opacity:1;stroke:#24c86e;stroke-width:2;stroke-miterlimit:4;stroke-dasharray:none;stroke-dashoffset:6.36999989;stroke-opacity:1"
       inkscape:connector-curvature="0" />
    <path
       id="path4204"
       d="m 164.82935,591.99384 c 34.05796,-13.25207 67.47709,-21.33729 106.81511,-6.36726 8.12395,3.32014 23.00252,-0.26982 28.76494,-5.49158 11.89373,-10.77778 10.78141,-30.97867 10.78141,-30.97867"
       style="fill:none;fill-opacity:1;stroke:#244a6e;stroke-width:2;stroke-miterlimit:4;stroke-dasharray:none;stroke-dashoffset:6.36999989;stroke-opacity:1"
       inkscape:connector-curvature="0" />
    <path
       style="fill:#ff4a6e;fill-opacity:1;stroke:none;stroke-width:0.89300001;stroke-miterlimit:10;stroke-dasharray:none;stroke-dashoffset:6.36999989;stroke-opacity:1"
       d="m 328.82581,566.01166 a 4,4.0000005 0 0 1 -4,4 4,4.0000005 0 0 1 -4,-4 4,4.0000005 0 0 1 4,-4 4,4.0000005 0 0 1 4,4 z"
       id="ellipse4206" />
    <path
       id="path4229"
       style="font-style:normal;font-variant:normal;font-weight:normal;font-stretch:normal;font-size:medium;line-height:125%;font-family:Azonix;-inkscape-font-specification:'Azonix, Normal';text-align:start;letter-spacing:0px;word-spacing:0px;writing-mode:lr-tb;text-anchor:start;fill:#ffffff;fill-opacity:1;stroke:#244a6e;stroke-width:1px;stroke-linecap:butt;stroke-linejoin:miter;stroke-opacity:1"
       d="m 286.58017,565.54259 -3.36,2.595 -3.375,-2.595 -1.875,-1.455 0,10.515 1.875,0 0,-6.69 1.83,1.41 1.545,1.185 1.53,-1.185 1.83,-1.41 0,6.69 1.89,0 0,-10.515 -1.89,1.455 z m -15,-1.44 c -2.895,0 -5.235,2.34 -5.235,5.235 0,2.91 2.34,5.25 5.235,5.25 2.91,0 5.25,-2.34 5.25,-5.25 0,-2.895 -2.34,-5.235 -5.25,-5.235 z m 0,8.625 c -1.86,0 -3.375,-1.515 -3.375,-3.39 0,-1.86 1.515,-3.375 3.375,-3.375 1.86,0 3.375,1.515 3.375,3.375 0,1.875 -1.515,3.39 -3.375,3.39 z m -10.92211,-6.765 5.25,0 0,-1.875 -5.25,0 c -2.91,0 -5.25,2.355 -5.25,5.25 0,2.91 2.34,5.265 5.25,5.265 l 5.25,0 0,-1.875 -5.25,0 c -1.875,0 -3.39,-1.515 -3.39,-3.39 0,-1.86 1.515,-3.375 3.39,-3.375 z m -13.47141,0 7.665,0 0,-1.875 -7.665,0 c -1.56,0 -2.82,1.275 -2.82,2.85 l 0,4.815 c 0,1.575 1.26,2.85 2.82,2.85 l 7.665,0 0,-1.875 -7.665,0 c -0.525,0 -0.96,-0.435 -0.96,-0.975 l 0,-1.98 6.75,0 0,-1.875 -6.75,0 0,-0.96 c 0,-0.54 0.435,-0.975 0.96,-0.975 z m -9.83601,6.75 c -0.675,-0.075 -1.2,-0.615 -1.29,-1.275 l 0,-7.35 -1.86,0 0,7.155 c 0,0.54 0.12,1.035 0.345,1.47 0.315,0.675 0.855,1.215 1.515,1.53 0.45,0.225 0.945,0.345 1.47,0.345 l 5.325,0 0,-1.875 -5.505,0 z m -12.34172,-6.75 7.665,0 0,-1.875 -7.665,0 c -1.56,0 -2.82,1.275 -2.82,2.85 l 0,4.815 c 0,1.575 1.26,2.85 2.82,2.85 l 7.665,0 0,-1.875 -7.665,0 c -0.525,0 -0.96,-0.435 -0.96,-0.975 l 0,-1.98 6.75,0 0,-1.875 -6.75,0 0,-0.96 c 0,-0.54 0.435,-0.975 0.96,-0.975 z m -14.83172,-1.86 0,1.875 4.305,0 0,8.625 1.875,0 0,-8.625 4.305,0 0,-1.875 -10.485,0 z" />
  </g>
</svg>
